<?xml version="1.0" encoding="UTF-8"?>
<svg viewBox="0 0 100 30" version="1.1" xmlns="http://www.w3.org/2000/svg" xmlns:xlink="http://www.w3.org/1999/xlink">
    <!-- Generator: Sketch 61 (89581) - https://sketch.com -->
    <title>Logo / Bar / Main / Left</title>
    <desc>Created with Sketch.</desc>
    <g id="Symbols" stroke="none" stroke-width="1" fill="none" fill-rule="evenodd">
        <g id="Nav-/-Main-/-Worldwide-" transform="translate(-72.000000, -64.000000)">
            <g id="Nav-/-Main">
                <g id="Logo-/-Main" transform="translate(72.000000, 64.000000)">
                    <g id="Logo-/-Text" fill="#1B3281">
                        <path d="M52.39577,1.58405419 C52.318,2.60862194 52.27457,3.63620903 52.27457,4.67184774 L52.27457,4.67184774 L52.27457,12.2796155 C52.27457,13.3685961 52.56747,15.1127768 54.43799,15.4640284 C55.09449,15.5747381 55.76917,15.62808 56.45799,15.62808 C57.09025,15.62808 57.71847,15.5878219 58.33558,15.5133445 L58.33558,15.5133445 L58.33558,4.75739613 C58.33558,4.25618323 58.32144,3.75497032 58.3073,3.25275097 C58.25781,2.59352516 57.72251,2.07520258 57.06197,2.07520258 L57.06197,2.07520258 L56.93673,2.07520258 L56.93673,1.58405419 L62.87654,1.58405419 C62.79776,2.63680258 62.75534,3.69357677 62.75534,4.75739613 L62.75534,4.75739613 L62.75534,8.39571871 L68.81635,8.39571871 L68.81635,4.75739613 C68.81635,4.25618323 68.80928,3.75798968 68.78807,3.25878968 C68.74464,2.59755097 68.20631,2.07520258 67.54577,2.07520258 L67.54577,2.07520258 L67.4175,2.07520258 L67.4175,1.58405419 L73.36034,1.58405419 C73.27853,2.63680258 73.23914,3.69357677 73.23914,4.75739613 L73.23914,4.75739613 L73.23914,13.9452929 C73.23914,15.0081058 73.27853,16.06488 73.36034,17.1176284 L73.36034,17.1176284 L68.69515,17.1176284 C68.77393,16.06488 68.81635,15.0081058 68.81635,13.9452929 L68.81635,13.9452929 L68.81635,10.0996413 L62.75534,10.0996413 L62.75534,13.9452929 C62.75534,15.0050865 62.80483,16.0578348 62.88361,17.1105832 C62.84119,17.1105832 62.79776,17.114609 62.75534,17.1176284 C60.67373,17.2605445 58.57495,17.3309961 56.45799,17.3309961 C55.10863,17.3309961 53.78149,17.2313574 52.48566,17.0441574 C48.33355,16.4382735 47.84875,13.0706865 47.84875,11.5398735 L47.84875,11.5398735 L47.84875,4.75739613 C47.84875,4.25618323 47.83764,3.75094452 47.81946,3.24973161 C47.77704,2.59352516 47.23467,2.07520258 46.57716,2.07520258 L46.57716,2.07520258 L46.45293,2.07520258 L46.45293,1.58405419 Z M84.223799,1.37380645 C88.6683132,1.37380645 93.1673493,3.96226292 93.3294814,9.0658298 L93.333999,9.35194839 C93.333999,14.6448774 88.750619,17.327071 84.223799,17.327071 C79.697989,17.327071 75.114609,14.6448774 75.114609,9.35194839 C75.114609,4.05901935 79.697989,1.37380645 84.223799,1.37380645 Z M45.62069,1.58556387 L45.62069,2.01934452 L39.45969,12.2458994 C38.82137,13.3056929 38.22446,14.3624671 37.67502,15.4152155 L37.67502,15.4152155 L43.12195,15.4152155 C44.16831,15.4152155 45.20356,15.3729445 46.23881,15.2904155 L46.23881,15.2904155 L46.23881,17.1191381 L31.59886,17.1191381 L31.59886,16.6813316 L37.80329,6.39036387 C38.42444,5.34868645 39.0062,4.31707355 39.54554,3.28848 L39.54554,3.28848 L35.17628,3.28848 C34.75107,3.28848 34.3299,3.29250581 33.90873,3.30659613 C33.17749,3.35691871 32.59876,3.97588645 32.59876,4.72971871 L32.59876,4.72971871 L32.05639,4.72971871 L32.05639,1.58556387 L45.62069,1.58556387 Z M29.616129,1.58677161 C29.534319,2.63650065 29.494929,3.69126194 29.494929,4.75608774 L29.494929,4.75608774 L29.494929,13.9480103 C29.494929,15.0078039 29.534319,16.0675974 29.616129,17.1173265 L29.616129,17.1173265 L24.950939,17.1173265 C25.028709,16.0675974 25.072139,15.0078039 25.072139,13.9480103 L25.072139,13.9480103 L25.072139,4.75608774 C25.072139,4.3575329 25.068099,3.95897806 25.053959,3.56344258 C25.053959,2.77438452 24.425739,2.13730065 23.651069,2.13730065 L23.651069,2.13730065 L23.511689,2.13730065 L23.511689,1.58677161 Z M7.1104,4.26325641e-15 C7.95981,2.10549677 8.85972,4.21803871 9.80205,6.34265806 L9.80205,6.34265806 L11.04738,9.15971613 L12.27554,6.34265806 C13.19666,4.21803871 14.07435,2.10549677 14.90659,4.26325641e-15 L14.90659,4.26325641e-15 L20.23232,4.26325641e-15 C20.36463,2.10549677 20.53936,4.21803871 20.75348,6.34265806 L20.75348,6.34265806 L21.20293,10.7780903 C21.42109,12.896671 21.6746,15.0142452 21.97053,17.1167226 L21.97053,17.1167226 L16.89124,17.1167226 C16.75893,15.0142452 16.5842,12.896671 16.37008,10.7780903 L16.37008,10.7780903 L15.65601,3.73896774 C14.6955,5.77602581 13.76731,7.81509677 12.87851,9.86725161 L12.87851,9.86725161 L12.48259,10.7780903 C11.55844,12.896671 10.68378,15.0142452 9.84851,17.1167226 L9.84851,17.1167226 L9.1809,17.1167226 C8.32745,15.0142452 7.43158,12.896671 6.48925,10.7780903 L6.48925,10.7780903 L6.24281,10.2185032 C5.32876,8.16634839 4.38643,6.12526452 3.40875,4.09021935 L3.40875,4.09021935 L2.727,10.7780903 C2.51288,12.896671 2.34118,15.0142452 2.20584,17.1167226 L2.20584,17.1167226 L-1.20996687e-14,17.1167226 C0.29593,15.0142452 0.54944,12.896671 0.76356,10.7780903 L0.76356,10.7780903 L1.21705,6.34265806 C1.3635,4.88028387 1.49177,3.42495484 1.59883,1.97465806 C1.59883,1.1876129 0.97061,0.554554839 0.19998,0.554554839 L0.19998,0.554554839 L0.19998,4.26325641e-15 Z M84.223799,3.07370323 C80.768589,3.07370323 79.558609,6.47047742 79.555579,9.35194839 C79.558609,12.2334194 80.768589,15.6271742 84.223799,15.6271742 C87.680019,15.6271742 88.889999,12.2334194 88.893029,9.35194839 C88.889999,6.47047742 87.680019,3.07370323 84.223799,3.07370323 Z"></path>
                    </g>
                    <g id="Logo-/-Swipe" transform="translate(8.080000, 21.135484)" fill="#ED1A3B">
                        <path d="M0.195686776,4.19388387 C12.4823368,1.44727742 25.2618668,1.43884904e-14 38.3767168,1.43884904e-14 C56.8960768,1.43884904e-14 74.7660068,2.76774194 91.5895768,7.90668387 C91.6542168,7.92580645 91.6936068,7.9892129 91.6794668,8.05664516 C91.6643168,8.12407742 91.5966468,8.1744 91.5259468,8.15628387 C74.2266668,5.31708387 56.5102568,3.69569032 38.4585268,3.37865806 C25.5759768,3.15522581 12.8358368,3.60712258 0.277496776,4.69207742 C0.153266776,4.70616774 0.0350967756,4.62464516 0.00681677561,4.49984516 C-0.0255032244,4.36498065 0.0603467756,4.22508387 0.195686776,4.19388387"></path>
                    </g>
                </g>
            </g>
        </g>
    </g>
</svg>